<svg width="1280" height="720" viewBox="0 0 1280 720" fill="none" xmlns="http://www.w3.org/2000/svg">
<g clip-path="url(#clip0_568_24)">
<rect width="1280" height="720" fill="white"/>
<path d="M202.667 84C202.667 78.3421 204.914 72.9159 208.915 68.9151C212.916 64.9143 218.342 62.6667 224 62.6667H293.333C298.991 62.6667 304.418 64.9143 308.418 68.9151C312.419 72.9159 314.667 78.3421 314.667 84V153.333C314.667 158.991 312.419 164.418 308.418 168.418C304.418 172.419 298.991 174.667 293.333 174.667H266.667V218.005C266.667 226.453 273.536 233.333 282.005 233.333H325.333V206.667C325.333 201.009 327.581 195.583 331.582 191.582C335.583 187.581 341.009 185.333 346.667 185.333H416C421.658 185.333 427.084 187.581 431.085 191.582C435.086 195.583 437.333 201.009 437.333 206.667V276C437.333 281.658 435.086 287.084 431.085 291.085C427.084 295.086 421.658 297.333 416 297.333H346.667C341.009 297.333 335.583 295.086 331.582 291.085C327.581 287.084 325.333 281.658 325.333 276V249.333H281.995C273.686 249.328 265.719 246.024 259.845 240.148C253.971 234.271 250.669 226.304 250.667 217.995V174.667H224C218.342 174.667 212.916 172.419 208.915 168.418C204.914 164.418 202.667 158.991 202.667 153.333V84ZM224 78.6667C222.586 78.6667 221.229 79.2286 220.229 80.2288C219.229 81.229 218.667 82.5855 218.667 84V153.333C218.667 154.748 219.229 156.104 220.229 157.105C221.229 158.105 222.586 158.667 224 158.667H293.333C294.748 158.667 296.104 158.105 297.105 157.105C298.105 156.104 298.667 154.748 298.667 153.333V84C298.667 82.5855 298.105 81.229 297.105 80.2288C296.104 79.2286 294.748 78.6667 293.333 78.6667H224ZM346.667 201.333C345.252 201.333 343.896 201.895 342.895 202.895C341.895 203.896 341.333 205.252 341.333 206.667V276C341.333 277.415 341.895 278.771 342.895 279.771C343.896 280.771 345.252 281.333 346.667 281.333H416C417.414 281.333 418.771 280.771 419.771 279.771C420.771 278.771 421.333 277.415 421.333 276V206.667C421.333 205.252 420.771 203.896 419.771 202.895C418.771 201.895 417.414 201.333 416 201.333H346.667Z" fill="#FF0066"/>
<path d="M909.333 116C907.212 116 905.177 116.843 903.676 118.343C902.176 119.843 901.333 121.878 901.333 124V204C901.333 206.122 902.176 208.157 903.676 209.657C905.177 211.157 907.212 212 909.333 212C911.455 212 913.49 211.157 914.99 209.657C916.49 208.157 917.333 206.122 917.333 204V124C917.333 121.878 916.49 119.843 914.99 118.343C913.49 116.843 911.455 116 909.333 116ZM960 116C957.878 116 955.843 116.843 954.343 118.343C952.843 119.843 952 121.878 952 124V172C952 174.122 952.843 176.157 954.343 177.657C955.843 179.157 957.878 180 960 180C962.122 180 964.157 179.157 965.657 177.657C967.157 176.157 968 174.122 968 172V124C968 121.878 967.157 119.843 965.657 118.343C964.157 116.843 962.122 116 960 116ZM1002.67 124C1002.67 121.878 1003.51 119.843 1005.01 118.343C1006.51 116.843 1008.54 116 1010.67 116C1012.79 116 1014.82 116.843 1016.32 118.343C1017.82 119.843 1018.67 121.878 1018.67 124V225.333C1018.67 227.455 1017.82 229.49 1016.32 230.99C1014.82 232.49 1012.79 233.333 1010.67 233.333C1008.54 233.333 1006.51 232.49 1005.01 230.99C1003.51 229.49 1002.67 227.455 1002.67 225.333V124Z" fill="#F7770F"/>
<path d="M872 73.3333H1048C1058.3 73.3333 1066.67 81.696 1066.67 92V268C1066.67 272.951 1064.7 277.699 1061.2 281.199C1057.7 284.7 1052.95 286.667 1048 286.667H872C867.049 286.667 862.301 284.7 858.801 281.199C855.3 277.699 853.333 272.951 853.333 268V92C853.333 81.696 861.696 73.3333 872 73.3333ZM869.333 92V268C869.333 269.472 870.528 270.667 872 270.667H1048C1048.71 270.667 1049.39 270.386 1049.89 269.886C1050.39 269.385 1050.67 268.707 1050.67 268V92C1050.67 91.2927 1050.39 90.6145 1049.89 90.1144C1049.39 89.6143 1048.71 89.3333 1048 89.3333H872C871.293 89.3333 870.614 89.6143 870.114 90.1144C869.614 90.6145 869.333 91.2927 869.333 92Z" fill="#F7770F"/>
<path d="M447.168 593.248C437.984 609.195 384.672 646.827 320 646.827C255.328 646.827 202.016 609.195 192.832 593.248C192.366 592.406 192.082 591.476 192 590.517V559.915C192.082 559.111 192.272 558.321 192.565 557.568C196.533 547.595 206.933 533.12 220.352 529.237C222.133 524.661 224.768 517.984 227.221 513.056C226.831 509.207 226.645 505.34 226.667 501.472C226.667 487.275 229.675 474.816 238.741 465.547C242.976 461.216 248.235 457.899 254.464 455.392C269.387 443.275 290.645 433.067 319.765 433.067C348.896 433.067 370.613 443.275 385.536 455.392C391.765 457.899 397.024 461.216 401.259 465.547C410.325 474.816 413.333 487.275 413.333 501.472C413.333 505.397 413.184 509.291 412.779 513.056C415.232 517.984 417.867 524.661 419.648 529.237C433.067 533.12 443.467 547.595 447.435 557.568C447.729 558.321 447.919 559.11 448 559.915V590.517C447.918 591.476 447.634 592.406 447.168 593.248ZM321.835 529.333H318.165C317.034 531.228 315.769 533.039 314.379 534.752C306.165 544.853 293.92 550.667 276.96 550.667C258.56 550.667 245.077 546.837 236.619 537.237C236.304 536.878 236.002 536.508 235.712 536.128L234.667 537.237V607.477C249.973 615.787 282.816 630.72 320 630.72C357.184 630.72 390.027 615.787 405.333 607.477V537.237L404.288 536.128C404.288 536.128 403.936 536.608 403.381 537.237C394.923 546.837 381.44 550.667 363.04 550.667C346.08 550.667 333.835 544.853 325.621 534.752C324.231 533.039 322.966 531.228 321.835 529.333ZM328.672 498.027C330.123 509.301 332.971 518.432 338.037 524.661C342.752 530.464 350.133 534.667 363.04 534.667C379.819 534.667 387.488 531.072 391.381 526.656C395.477 522.016 397.333 514.389 397.333 501.472C397.333 489.312 394.741 481.771 389.813 476.736C384.725 471.531 375.744 467.541 359.691 465.803C343.829 464.085 336.309 467.275 332.672 471.445C329.803 474.72 328.011 480.064 328 488.277V488.501C328 491.328 328.224 494.496 328.672 498.027ZM311.328 498.027C311.776 494.496 312 491.328 312 488.491V488.277C311.989 480.064 310.197 474.72 307.328 471.445C303.691 467.275 296.171 464.085 280.309 465.803C264.256 467.541 255.275 471.531 250.187 476.736C245.259 481.771 242.667 489.312 242.667 501.472C242.667 514.389 244.533 522.016 248.619 526.656C252.512 531.072 260.181 534.667 276.96 534.667C289.867 534.667 297.248 530.464 301.963 524.661C307.029 518.432 309.877 509.301 311.328 498.027Z" fill="#009473"/>
<path d="M346.667 564C349.496 564 352.209 565.124 354.209 567.124C356.21 569.125 357.333 571.838 357.333 574.667V596C357.333 598.829 356.21 601.542 354.209 603.542C352.209 605.543 349.496 606.667 346.667 606.667C343.838 606.667 341.125 605.543 339.124 603.542C337.124 601.542 336 598.829 336 596V574.667C336 571.838 337.124 569.125 339.124 567.124C341.125 565.124 343.838 564 346.667 564ZM293.333 564C296.162 564 298.875 565.124 300.876 567.124C302.876 569.125 304 571.838 304 574.667V596C304 598.829 302.876 601.542 300.876 603.542C298.875 605.543 296.162 606.667 293.333 606.667C290.504 606.667 287.791 605.543 285.791 603.542C283.79 601.542 282.667 598.829 282.667 596V574.667C282.667 571.838 283.79 569.125 285.791 567.124C287.791 565.124 290.504 564 293.333 564Z" fill="#009473"/>
<path d="M941.333 433.333C958.058 433.332 974.437 438.096 988.552 447.068C1002.67 456.04 1013.93 468.849 1021.03 483.994C1028.12 499.138 1030.76 515.992 1028.62 532.579C1026.48 549.167 1019.66 564.802 1008.96 577.653L1069.65 638.347C1070.71 639.325 1071.48 640.568 1071.88 641.947C1072.29 643.326 1072.31 644.788 1071.96 646.18C1071.6 647.573 1070.88 648.843 1069.86 649.858C1068.84 650.873 1067.57 651.594 1066.18 651.947C1064.79 652.303 1063.32 652.278 1061.95 651.875C1060.57 651.471 1059.33 650.704 1058.35 649.653L997.653 588.96C986.793 598.003 973.914 604.297 960.107 607.31C946.299 610.323 931.97 609.966 918.329 606.27C904.689 602.574 892.139 595.647 881.742 586.075C871.345 576.503 863.406 564.568 858.597 551.279C853.788 537.99 852.25 523.739 854.113 509.73C855.977 495.721 861.187 482.367 869.303 470.797C877.418 459.228 888.201 449.783 900.739 443.262C913.277 436.741 927.201 433.335 941.333 433.333ZM869.333 521.333C869.333 530.789 871.196 540.151 874.814 548.887C878.432 557.622 883.736 565.559 890.422 572.245C897.107 578.931 905.045 584.234 913.78 587.853C922.516 591.471 931.878 593.333 941.333 593.333C950.788 593.333 960.151 591.471 968.887 587.853C977.622 584.234 985.559 578.931 992.245 572.245C998.931 565.559 1004.23 557.622 1007.85 548.887C1011.47 540.151 1013.33 530.789 1013.33 521.333C1013.33 502.238 1005.75 483.924 992.245 470.422C978.742 456.919 960.429 449.333 941.333 449.333C922.238 449.333 903.924 456.919 890.422 470.422C876.919 483.924 869.333 502.238 869.333 521.333Z" fill="#0066FF"/>
<line y1="356" x2="1280" y2="356" stroke="#001220" stroke-width="8"/>
<line x1="636" y1="720" x2="636" stroke="#001220" stroke-width="8"/>
<g clip-path="url(#clip1_568_24)">
<rect width="246" height="240" transform="translate(517 240)" fill="white"/>
<path d="M640.333 240C572.557 240 517.667 294.891 517.667 362.667C517.667 416.949 552.781 462.795 601.539 479.04C607.672 480.117 609.965 476.437 609.965 473.216C609.965 470.304 609.816 460.651 609.816 450.368C579 456.043 571.032 442.859 568.579 435.968C567.192 432.437 561.219 421.547 555.992 418.635C551.704 416.331 545.571 410.656 555.843 410.507C565.507 410.357 572.408 419.403 574.712 423.083C585.752 441.643 603.384 436.416 610.435 433.195C611.501 425.227 614.723 419.861 618.253 416.789C590.957 413.728 562.445 403.147 562.445 356.224C562.445 342.891 567.192 331.851 575.011 323.264C573.784 320.192 569.496 307.616 576.237 290.752C576.237 290.752 586.509 287.531 609.976 303.328C619.789 300.565 630.211 299.189 640.643 299.189C651.064 299.189 661.496 300.576 671.309 303.328C694.776 287.381 705.037 290.752 705.037 290.752C711.789 307.616 707.491 320.192 706.264 323.264C714.083 331.851 718.84 342.731 718.84 356.224C718.84 403.296 690.168 413.717 662.872 416.789C667.32 420.629 671.149 427.989 671.149 439.488C671.149 455.893 671 469.077 671 473.216C671 476.437 673.304 480.277 679.427 479.051C727.896 462.795 763 416.789 763 362.667C763 294.891 708.109 240 640.333 240Z" fill="black"/>
</g>
</g>
<defs>
<clipPath id="clip0_568_24">
<rect width="1280" height="720" fill="white"/>
</clipPath>
<clipPath id="clip1_568_24">
<rect width="246" height="240" fill="white" transform="translate(517 240)"/>
</clipPath>
</defs>
</svg>
